<svg id="Capa_1" enable-background="new 0 0 512 512" height="512" viewBox="0 0 512 512" width="512" xmlns="http://www.w3.org/2000/svg"><g><g clip-rule="evenodd" fill-rule="evenodd"><path d="m133.586 510.436 67.516-123.836-17.817-17.644-33.07 17.644-65.95 120.964c-1.09 1.999.357 4.436 2.634 4.436h44.053c1.098 0 2.109-.6 2.634-1.564z" fill="#ffc243"/><path d="m310.633 386.6 67.545 123.836c.526.964 1.536 1.563 2.634 1.563h44.054c2.277 0 3.724-2.437 2.634-4.436l-65.95-120.963-28.941-14.839z" fill="#ffc243"/><path d="m455.127 351.313-195.46-29.098-203.029 29.098v17.658c0 9.696 7.933 17.629 17.628 17.629h75.949 50.887 109.531 50.917 75.949c9.696 0 17.628-7.933 17.628-17.629z" fill="#547884"/><path d="m455.127 351.313h15.601c21.213 0 38.577-17.335 38.577-38.548v-274.217c0-21.213-17.364-38.548-38.577-38.548h-429.72c-19.715 0-36.109 15.014-38.313 34.171v282.972c2.204 19.157 18.598 34.171 38.312 34.171h15.63c193.061-.001-94.105-.001 398.49-.001z" fill="#ffc243"/><path d="m33.545 38.548v274.216c0 4.113 3.349 7.463 7.463 7.463h429.721c4.113 0 7.492-3.349 7.492-7.463v-274.216c0-4.084-3.379-7.463-7.492-7.463h-429.721c-4.114.001-7.463 3.379-7.463 7.463z" fill="#f9f7f8"/><path d="m84.256 330.776v20.538h120.343v-20.538c0-3.849-1.087-7.463-2.938-10.548-3.584-5.994-10.166-10.019-17.628-10.019h-79.21c-7.463 0-14.044 4.025-17.628 10.019-1.852 3.085-2.939 6.699-2.939 10.548z" fill="#60b6ff"/><path d="m33.545 62.2h402.632c4.113 0 7.492 3.379 7.492 7.492v250.535h27.06c4.113 0 7.492-3.349 7.492-7.463v-274.216c0-4.084-3.379-7.463-7.492-7.463h-429.721c-4.113 0-7.463 3.379-7.463 7.463z" fill="#e5e1e5"/><path d="m478.22 38.548v274.216c0 4.113-3.379 7.463-7.492 7.463h-27.06-21.654c-3.496 17.658-19.156 31.086-37.842 31.086h70.954 15.601c21.213 0 38.577-17.335 38.577-38.548v-274.217c.001-21.213-17.363-38.548-38.576-38.548h-86.555c18.686 0 34.346 13.427 37.842 31.086h48.713c4.113 0 7.492 3.378 7.492 7.462z" fill="#fea610"/><path d="m396.63 368.971c0 9.696-7.933 17.629-17.628 17.629h58.497c9.696 0 17.628-7.933 17.628-17.629v-17.658h-58.497z" fill="#3d595a"/><path d="m185.824 414.63 15.278-28.03h-50.887l-15.278 28.03z" fill="#fea610"/><path d="m310.633 386.6 15.278 28.03h50.917l-15.278-28.03z" fill="#fea610"/><path d="m173.308 320.228c1.851 3.085 2.938 6.699 2.938 10.548v20.538h28.352v-20.538c0-3.849-1.087-7.463-2.938-10.548-3.584-5.994-10.166-10.019-17.628-10.019h-28.352c7.463 0 14.044 4.025 17.628 10.019z" fill="#23a6fe"/></g><g fill="#547884"><path d="m147.498 88.084c-.02-.052-.04-.104-.061-.156-1.655-4.111-5.592-6.768-10.032-6.768-4.439 0-8.377 2.657-10.032 6.768-.018.045-.036.09-.053.135l-51.18 134.39c-1.522 3.996.484 8.468 4.479 9.99 3.996 1.521 8.468-.483 9.99-4.479l10.846-28.479h71.554l10.745 28.458c1.17 3.1 4.116 5.009 7.244 5.009.908 0 1.833-.161 2.733-.501 4-1.51 6.018-5.977 4.508-9.977zm-40.147 95.918 30.035-78.866 29.777 78.866z"/><path d="m430.707 206.518c-3.296-2.723-8.175-2.259-10.9 1.037-.818.991-1.788 1.998-2.816 2.934-5.211 4.63-11.805 6.978-19.597 6.978-20.583 0-37.329-16.746-37.329-37.329 0-20.584 16.746-37.33 37.329-37.33 7.467 0 14.689 2.205 20.884 6.377 3.545 2.388 8.357 1.449 10.745-2.097 2.388-3.547 1.45-8.357-2.097-10.745-8.761-5.9-18.973-9.018-29.532-9.018-29.121 0-52.812 23.691-52.812 52.813 0 29.121 23.691 52.812 52.812 52.812 11.531 0 21.864-3.764 29.947-10.946 1.637-1.488 3.118-3.031 4.403-4.586 2.723-3.297 2.259-8.177-1.037-10.9z"/><path d="m274.437 127.325c-14.562 0-27.766 5.924-37.329 15.489v-51.996c0-4.275-3.466-7.741-7.741-7.741s-7.741 3.466-7.741 7.741v134.39c0 4.275 3.466 7.741 7.741 7.741s7.741-3.466 7.741-7.741v-7.747c9.563 9.565 22.767 15.489 37.329 15.489 29.12 0 52.811-23.692 52.811-52.812 0-29.122-23.691-52.813-52.811-52.813zm0 90.142c-20.583 0-37.329-16.746-37.329-37.329 0-20.584 16.745-37.33 37.329-37.33 20.583 0 37.328 16.746 37.328 37.33 0 20.583-16.745 37.329-37.328 37.329z"/></g></g></svg>